<svg xmlns="http://www.w3.org/2000/svg" viewBox="0 0 512 512" fill="#B6509E">
  <path d="M256,0C114.615,0,0,114.615,0,256s114.615,256,256,256s256-114.615,256-256S397.385,0,256,0z M339.752,333.344
    l-35.336,13.57l-16.711-43.799l35.336-13.57L339.752,333.344z M353.645,273.719l-35.336,13.57l-26.471-69.348l35.336-13.57
    L353.645,273.719z M220.191,178.656l-35.336,13.57l-24.162-63.268h146.401l-16.104,41.936l-35.336-13.57l17.765,46.52
    L220.191,178.656z M273.238,384h-44.256l22.627-59.26l21.629,8.275L273.238,384z M308.574,367.709l-21.629-8.275
    l54.887-143.684l21.629,8.275L308.574,367.709z"/>
</svg>