<svg xmlns="http://www.w3.org/2000/svg" viewBox="0 0 512 512" fill="#E84142">
  <path d="M482.433,215.394,302.5,22.251a31.464,31.464,0,0,0-50.627-.035L29.567,215.358a31.463,31.463,0,0,0,.034,44.7L181.879,431.206c13.722,10.42,32.74,10.45,46.495.093l.322-.234,105.2-79.674a31.463,31.463,0,0,0,15.65-27.464V243.167A31.463,31.463,0,0,0,322.261,215.4L220.08,137.62a31.463,31.463,0,0,0-36.924,0L78.1,234.358a31.463,31.463,0,0,0,0,44.7L183.15,380.206a31.463,31.463,0,0,0,36.924,0l105.05-77.779a31.463,31.463,0,0,0,15.7-22.316l-34.978-26.486-63.555,47.054a31.463,31.463,0,0,1-36.924,0L78.1,234.358,183.15,156.579l99.789,73.886v65.736L181.879,375.879l-103.78-77.779,152.277-115.34L434.3,260.061l-68.809,52.1c-13.722,10.42-32.74,10.45-46.495.093l-.322-.234L213.62,232.342a31.463,31.463,0,0,0-36.924,0l-63.555,47.054,63.555,47.054a31.463,31.463,0,0,0,36.924,0l105.05-77.779,34.978-26.486a31.463,31.463,0,0,0,15.7-22.316V260.061l-33.029-24.965-68.809,50.946a31.463,31.463,0,0,1-36.924,0L78.1,234.358l105.05-77.779,99.789,73.886v65.736L181.879,375.879,78.1,278.1,183.15,190.28l99.789,73.886a31.463,31.463,0,0,0,31.353,0L482.4,260.061a31.463,31.463,0,0,0-.034-44.667Z"/>
</svg>