<svg xmlns="http://www.w3.org/2000/svg" viewBox="0 0 24 24" fill="none">
  <path fill="#F7931A" d="M12 2C6.477 2 2 6.477 2 12s4.477 10 10 10 10-4.477 10-10S17.523 2 12 2zm0 18c-4.411 0-8-3.589-8-8s3.589-8 8-8 8 3.589 8 8-3.589 8-8 8z"/>
  <path fill="#FFFFFF" d="M14.93 8.948h-1.854c.144-.452.227-1.07.227-1.802 0-.6-.11-1.08-.33-1.45a1.274 1.274 0 00-.91-.56c-.36 0-.66.1-.89.3-.23.2-.39.5-.47.88-.08.38-.11.8-.11 1.26v.05h-1.82v-.05c0-.44.03-.84.09-1.22.06-.38.16-.7.3-.96.14-.26.32-.48.54-.66.22-.18.48-.32.78-.42.3-.1.64-.15 1.02-.15.42 0 .8.06 1.14.18.34.12.64.3.88.54.24.24.43.53.56.87.13.34.2.72.2 1.14 0 .7-.09 1.28-.27 1.74zM15.11 10.668v.1h-4.3v-.1c.06-.44.09-.84.09-1.22 0-.3-.02-.56-.06-.78-.04-.22-.1-.4-.18-.54s-.18-.24-.3-.3c-.12-.06-.26-.09-.42-.09-.2 0-.38.04-.54.12-.16.08-.3.2-.42.36-.12.16-.21.36-.27.6s-.09.5-.09.78c0 .4.02.76.06 1.08zm0 1.66v.04h-4.3v-.04c.06-.4.09-.76.09-1.08 0-.3-.02-.56-.06-.78-.04-.22-.1-.4-.18-.54s-.18-.24-.3-.3c-.12-.06-.26-.09-.42-.09-.2 0-.38.04-.54.12-.16.08-.3.2-.42.36-.12.16-.21.36-.27.6s-.09.5-.09.78c0 .4.02.76.06 1.08zm0 1.66v.04h-4.3v-.04c.06-.4.09-.76.09-1.08 0-.3-.02-.56-.06-.78-.04-.22-.1-.4-.18-.54s-.18-.24-.3-.3c-.12-.06-.26-.09-.42-.09-.2 0-.38.04-.54.12-.16.08-.3.2-.42.36-.12.16-.21.36-.27.6s-.09.5-.09.78c0 .4.02.76.06 1.08zm.27 1.838c.14-.3.21-.66.21-1.08 0-.34-.02-.64-.06-.9-.04-.26-.1-.48-.18-.66-.08-.18-.18-.32-.3-.42-.12-.1-.26-.15-.42-.15-.2 0-.38.04-.54.12-.16.08-.3.2-.42.36-.12.16-.21.36-.27.6s-.09.5-.09.78c0 .4.02.76.06 1.08v.04h4.3v-.04c.06-.42.09-.8.09-1.12z"/>
</svg>