<svg xmlns="http://www.w3.org/2000/svg" viewBox="0 0 512 512" fill="#C4A657">
  <path d="M256,0C114.615,0,0,114.615,0,256s114.615,256,256,256s256-114.615,256-256S397.385,0,256,0z M323.512,320.173
    c-4.432-1.637-11.23-5.228-17.707-8.109c-14.288-6.347-24.938-10.456-32.062-12.35c-7.062-1.928-12.302-2.883-15.757-2.883
    c-3.418,0-6.115,0.73-8.109,2.153c-1.962,1.459-3.08,3.756-3.322,6.852c-0.242,3.132,0.615,6.23,2.609,9.328
    c1.994,3.062,5.26,5.842,9.79,8.34c8.109,4.468,19.349,7.904,33.71,10.296c-11.916,11.23-26.602,19.851-44.027,25.864
    c-17.391,6.014-36.236,9.021-56.499,9.021c-16.104,0-31.107-1.962-45.039-5.877c-13.932-3.916-26.06-9.529-36.396-16.811
    l-12.095,20.09c13.57,8.604,29.749,15.213,48.537,19.816c18.789,4.603,38.64,6.905,59.554,6.905c25.495,0,49.027-4.158,70.597-12.484
    c21.569-8.326,39.39-19.782,53.483-34.373l1.833-2.226c-1.928,1.423-4.225,2.775-6.887,4.056
    c-2.662,1.28-5.324,2.348-7.986,3.199c-2.662,0.851-5.048,1.49-7.15,1.928c-2.102,0.402-3.872,0.615-5.324,0.615
    c-2.626,0-4.728-0.686-6.311-2.091c-1.583-1.405-2.375-3.619-2.375-6.634c0-3.014,1.054-5.592,3.163-7.734
    c2.102-2.14,5.192-3.95,9.25-5.419c4.056-1.47,8.64-3.048,13.755-4.728c5.115-1.68,9.444-3.199,12.964-4.567
    c3.519-1.368,6.265-2.825,8.223-4.385c1.962-1.559,2.943-3.619,2.943-6.185c0-2.42-0.793-4.337-2.375-5.742
    c-1.583-1.405-3.756-2.102-6.536-2.102c-2.775,0-5.908,0.762-9.408,2.298c-3.501,1.535-6.668,3.282-9.529,5.26
    c-2.861,1.979-5.324,4.021-7.398,6.115c-2.071,2.091-3.74,4.092-5,5.978l-19.46-12.448c2.42-3.806,5.556-7.242,9.408-10.309
    c3.852-3.062,8.04-5.556,12.57-7.47c4.53-1.914,9.117-3.322,13.755-4.225c4.638-0.902,8.862-1.353,12.68-1.353
    c6.779,0,12.57,1.085,17.391,3.282c4.821,2.191,8.514,5.293,11.084,9.285c2.571,3.987,3.852,8.892,3.852,14.701
    c0,4.603-0.938,8.827-2.775,12.645c-1.833,3.818-4.53,7.182-8.073,10.076c-3.555,2.895-7.58,5.324-12.095,7.278
    C329.823,319.451,326.656,319.952,323.512,320.173z"/>
</svg>