<svg xmlns="http://www.w3.org/2000/svg" viewBox="0 0 512 512" fill="#E6007A">
  <path d="M256,0C114.615,0,0,114.615,0,256s114.615,256,256,256s256-114.615,256-256S397.385,0,256,0z M256,368.618
    c-10.749,0-20.916-2.071-30.297-6.002c-8.718-3.619-16.17-8.924-22.37-15.83c-6.198-6.905-10.826-15.281-13.883-25.111
    c-3.062-9.83-4.593-20.655-4.593-32.473c0-11.818,1.531-22.643,4.593-32.473c3.057-9.83,7.685-18.224,13.883-25.111
    c6.2-6.905,13.652-12.21,22.37-15.83c9.381-3.931,19.548-6.002,30.297-6.002c10.749,0,20.916,2.071,30.297,6.002
    c8.718,3.619,16.17,8.924,22.37,15.83c6.198,6.887,10.826,15.281,13.883,25.111c3.062,9.83,4.593,20.655,4.593,32.473
    c0,11.818-1.531,22.643-4.593,32.473c-3.057,9.83-7.685,18.192-13.883,25.111c-6.2,6.905-13.652,12.21-22.37,15.83
    C276.916,366.546,266.749,368.618,256,368.618z M123.633,256c0-10.435,1.44-20.318,4.307-29.626
    c2.861-9.309,7.209-17.391,12.964-24.225c5.755-6.834,12.722-12.175,20.816-15.976c8.094-3.806,17.073-5.709,26.84-5.709
    c10.082,0,19.851,2.035,29.156,6.115c8.396,3.655,15.757,8.96,22.015,15.905c-15.004-10.435-31.902-15.652-50.69-15.652
    c-22.259,0-42.342,6.505-60.169,19.496C131.298,219.055,123.633,236.452,123.633,256z M287.904,332.124
    c15.004,10.435,31.902,15.652,50.69,15.652c22.259,0,42.342-6.505,60.169-19.496c17.828-12.991,26.741-30.388,26.741-49.176
    c0,10.435-1.44,20.318-4.307,29.626c-2.861,9.309-7.209,17.391-12.964,24.225c-5.755,6.834-12.722,12.175-20.816,15.976
    c-8.094,3.806-17.073,5.709-26.84,5.709c-10.082,0-19.851-2.035-29.156-6.115c-8.396-3.655-15.757-8.96-22.015-15.905
    C303.403,321.374,295.914,326.988,287.904,332.124z"/>
</svg>