<svg xmlns="http://www.w3.org/2000/svg" viewBox="0 0 512 512" fill="#375BD2">
  <path d="M256,0C114.615,0,0,114.615,0,256s114.615,256,256,256s256-114.615,256-256S397.385,0,256,0z M367.062,215.116
    l-44.256,44.256c-2.41,2.41-6.318,2.41-8.729,0l-28.895-28.895c-2.41-2.41-6.318-2.41-8.729,0l-55.744,55.744
    c-1.161,1.161-2.704,1.758-4.257,1.758c-1.553,0-3.097-0.598-4.257-1.758l-55.744-55.744c-2.41-2.41-6.318-2.41-8.729,0
    l-28.895,28.895c-2.41,2.41-6.318,2.41-8.729,0l-44.256-44.256c-2.41-2.41-2.41-6.318,0-8.729l104.288-104.288
    c2.41-2.41,6.318-2.41,8.729,0l104.288,104.288C369.473,208.798,369.473,212.705,367.062,215.116z M338.167,296.884
    l-44.256,44.256c-2.41,2.41-6.318,2.41-8.729,0l-28.895-28.895c-2.41-2.41-6.318-2.41-8.729,0l-55.744,55.744
    c-1.161,1.161-2.704,1.758-4.257,1.758c-1.553,0-3.097-0.598-4.257-1.758l-55.744-55.744c-2.41-2.41-6.318-2.41-8.729,0
    l-28.895,28.895c-2.41,2.41-6.318,2.41-8.729,0l-44.256-44.256c-2.41-2.41-2.41-6.318,0-8.729l104.288-104.288
    c2.41-2.41,6.318-2.41,8.729,0l104.288,104.288C340.578,290.566,340.578,294.474,338.167,296.884z"/>
</svg>