<svg xmlns="http://www.w3.org/2000/svg" viewBox="0 0 512 512" fill="#8247E5">
  <path d="M374.62,188.13c-1.37-2.3-3.69-3.7-6.2-3.7h-72.13c-2.51,0-4.83,1.4-6.2,3.7l-34.6,59.87l-37.47-21.67
    c-2.22-1.28-4.87-1.63-7.29-0.91l-72.25,21.67c-2.42,0.72-4.3,2.7-5.02,5.12l-36.12,121.13c-0.72,2.42,0.1,5.04,2.32,6.32
    l37.47,21.67c2.22,1.28,4.87,1.63,7.29,0.91l72.25-21.67c2.42-0.72,4.3-2.7,5.02-5.12l17.77-59.75l34.6,59.87
    c1.37,2.3,3.69,3.7,6.2,3.7h72.13c2.51,0,4.83-1.4,6.2-3.7l36.12-61.93c1.37-2.3,1.37-5.1,0-7.4L374.62,188.13z"/>
</svg>