<svg xmlns="http://www.w3.org/2000/svg" viewBox="0 0 512 512" fill="#F0A333">
  <path d="M344.8,111.4c-11.8-11.5-30.8-11.5-42.6,0l-12.3,12l-12.3-12c-11.8-11.5-30.8-11.5-42.6,0
    c-11.8,11.5-11.8,30.1,0,41.6l10.8,10.5l-30.9,30.1c-11.8,11.5-11.8,30.1,0,41.6c11.8,11.5,30.8,11.5,42.6,0l30.9-30.1l11.6,11.2
    c-3.1,10.9-4.8,22.4-4.8,34.4c0,53.9,43.9,97.7,97.7,97.7s97.7-43.9,97.7-97.7S402.6,155,348.7,155c-11.5,0-22.6,2.3-33,6.2
    L344.8,111.4z"/>
  <path d="M266.3,293.7l-10,9.7c-11.8,11.5-30.8,11.5-42.6,0l-10-9.7l-29.4,28.6c-11.8,11.5-11.8,30.1,0,41.6
    c11.8,11.5,30.8,11.5,42.6,0l29.4-28.6l29.4,28.6c11.8,11.5,30.8,11.5,42.6,0c11.8-11.5,11.8-30.1,0-41.6L266.3,293.7z"/>
  <path d="M117.2,251c-11.8-11.5-30.8-11.5-42.6,0s-11.8,30.1,0,41.6l29.4,28.6l-29.4,28.6c-11.8,11.5-11.8,30.1,0,41.6
    c11.8,11.5,30.8,11.5,42.6,0l29.4-28.6l29.4,28.6c11.8,11.5,30.8,11.5,42.6,0c11.8-11.5,11.8-30.1,0-41.6l-29.4-28.6l10-9.7
    c11.8-11.5,11.8-30.1,0-41.6c-11.8-11.5-30.8-11.5-42.6,0l-10,9.7L117.2,251z"/>
</svg>