<svg xmlns="http://www.w3.org/2000/svg" viewBox="0 0 24 24" fill="none">
  <path fill="url(#sol_gradient)" d="M12 2C6.477 2 2 6.477 2 12s4.477 10 10 10 10-4.477 10-10S17.523 2 12 2z"/>
  <path fill="#FFFFFF" d="M8.707 7.293a1 1 0 0 0-1.414 1.414l2 2a1 1 0 0 0 1.414 0l6-6a1 1 0 1 0-1.414-1.414L10 8.586l-1.293-1.293zM15.293 14.293a1 1 0 0 0-1.414 1.414l-2 2a1 1 0 0 0 0 1.414l-6 6a1 1 0 0 0 1.414 1.414L10 18.414l1.293 1.293a1 1 0 0 0 1.414-1.414l-2-2a1 1 0 0 0-1.414 0l-6-6a1 1 0 1 0-1.414 1.414L8.586 17l-1.293-1.293z"/>
  <defs>
    <linearGradient id="sol_gradient" x1="0" y1="0" x2="24" y2="24" gradientUnits="userSpaceOnUse">
      <stop stop-color="#00FFA3"/>
      <stop offset="1" stop-color="#DC1FFF"/>
    </linearGradient>
  </defs>
</svg>