<svg xmlns="http://www.w3.org/2000/svg" viewBox="0 0 512 512" fill="#FF007A">
  <path d="M393.206,145.421c-22.122-19.551-49.337-33.153-79.068-38.683c-11.02-2.071-22.353-3.132-33.928-3.132
    c-17.73,0-34.906,2.262-51.183,6.67c-2.456,0.668-4.337,2.861-4.763,5.419c-0.442,2.571,0.73,5.082,2.883,6.536
    c21.217,14.399,44.221,25.864,68.747,34.204c1.928,0.668,3.95,1.019,6.014,1.019c6.185,0,11.527-4.404,12.722-10.456
    c4.122-20.947,13.932-40.485,28.322-57.09c13.043-14.97,28.799-26.876,46.108-35.252c2.535-1.244,4.122-3.883,4.122-6.709
    C397.385,148.249,395.738,146.18,393.206,145.421z M409.683,166.703c-28.006,15.757-52.6,37.521-72.298,64.032
    c-2.42,3.322-2.102,7.917,0.762,10.908c2.861,2.975,7.362,3.394,10.662,1.054c2.895-2.035,5.709-4.158,8.441-6.376
    c17.765-14.736,33.435-31.56,46.252-50.136c1.649-2.375,1.868-5.396,0.598-7.986
    C402.589,166.426,399.788,165.666,409.683,166.703z M193.896,165.811c-2.571-0.902-5.419,0.063-7.242,2.226
    c-13.043,15.115-23.756,31.741-31.849,49.699c-1.337,2.943-0.793,6.347,1.244,8.729c1.994,2.375,5.115,3.322,8.04,2.375
    c23.21-7.409,45.393-18.062,65.989-31.656c2.42-1.618,3.701-4.307,3.394-7.062c-0.306-2.757-2.14-5.082-4.728-6.115
    C212.871,175.766,203.101,170.824,193.896,165.811z M204.62,283.693c-20.09,12.337-41.488,21.569-63.764,27.545
    c-2.825,0.762-4.908,3.163-5.324,6.014c-0.402,2.861,1.019,5.592,3.555,6.905c31.142,16.213,64.846,26.708,99.982,30.852
    c31.321,3.721,63.146,3.062,94.131-2.071c3.132-0.528,5.524-3.08,5.842-6.23c0.306-3.163-1.423-6.085-4.225-7.398
    c-25.707-11.773-49.954-26.602-71.841-44.027c-1.928-1.521-4.468-2.102-6.905-1.649
    C230.149,295.061,213.906,293.08,204.62,283.693z M157.062,370.211c-19.125-3.062-37.674-8.007-55.279-14.772
    c-2.757-1.085-5.908-0.094-7.47,2.571c-1.559,2.662-0.762,6.085,1.962,7.842c16.213,10.662,33.511,19.349,51.688,26.06
    c2.262,0.851,4.821,0.793,7.026-0.183C157.563,390.133,158.981,373.188,157.062,370.211z M347.018,365.111
    c-1.928,2.975-0.528,6.977,2.42,8.441c2.943,1.459,6.572,0.615,8.223-2.035c15.115-23.756,26.471-49.027,33.511-75.11
    c1.019-3.756-1.144-7.58-4.856-8.514c-3.721-0.938-7.47,1.144-8.514,4.856C369.329,313.916,359.374,338.406,347.018,365.111z"/>
</svg>