<svg xmlns="http://www.w3.org/2000/svg" viewBox="0 0 512 512" fill="#23292F">
  <path d="M256,0C114.615,0,0,114.615,0,256s114.615,256,256,256s256-114.615,256-256S397.385,0,256,0z M172.637,341.513
    l25.864-25.864c3.483,2.626,7.409,4.908,11.773,6.852c4.364,1.944,8.514,3.535,12.448,4.763l-24.938,24.938
    C187.352,347.018,178.23,345.109,172.637,341.513z M150.117,319.028l25.864-25.864c2.975,1.751,6.265,3.322,9.865,4.728
    c3.601,1.405,7.062,2.571,10.385,3.501l-30.658,30.658c-4.908-1.337-9.372-3.322-13.37-5.942
    C150.117,325.018,149.324,322.181,150.117,319.028z M127.597,296.508l25.864-25.864c3.217,1.176,6.779,2.226,10.662,3.163
    c3.883,0.938,7.654,1.609,11.312,1.994l-32.557,32.557c-5.228-2.226-9.757-5.115-13.57-8.677
    C127.525,301.218,126.837,298.676,127.597,296.508z M105.077,273.988l25.864-25.864c5.082,0.793,10.385,1.144,15.905,1.069
    l-34.41,34.41c-5.549-3.132-10.112-7.15-13.719-11.987C102.162,270.082,102.955,272.779,105.077,273.988z M339.363,170.487
    l-25.864,25.864c-3.483-2.626-7.409-4.908-11.773-6.852c-4.364-1.944-8.514-3.535-12.448-4.763l24.938-24.938
    C324.648,165.982,333.77,167.891,339.363,170.487z M361.883,192.972l-25.864,25.864c-2.975-1.751-6.265-3.322-9.865-4.728
    c-3.601-1.405-7.062-2.571-10.385-3.501l30.658-30.658c4.908,1.337,9.372,3.322,13.37,5.942
    C361.883,186.982,362.676,189.819,361.883,192.972z M384.403,215.492l-25.864,25.864c-3.217-1.176-6.779-2.226-10.662-3.163
    c-3.883-0.938-7.654-1.609-11.312-1.994l32.557-32.557c5.228,2.226,9.757,5.115,13.57,8.677
    C384.475,220.782,385.163,218.204,384.403,215.492z M406.923,238.012l-25.864,25.864c-5.082-0.793-10.385-1.144-15.905-1.069
    l34.41-34.41c5.549,3.132,10.112,7.15,13.719,11.987C409.838,241.918,409.045,239.221,406.923,238.012z"/>
</svg>